<svg width="318" height="317" viewBox="0 0 318 317" fill="none" xmlns="http://www.w3.org/2000/svg">
<rect width="318" height="317" fill="none"/>
<g clip-path="url(#clip0_0_1)">
<path d="M2 237C3.10457 237 4 236.105 4 235C4 233.895 3.10457 233 2 233C0.89543 233 0 233.895 0 235C0 236.105 0.89543 237 2 237Z" fill="#00FFFF"/>
<path d="M22 237C23.1046 237 24 236.105 24 235C24 233.895 23.1046 233 22 233C20.8954 233 20 233.895 20 235C20 236.105 20.8954 237 22 237Z" fill="#00FFFF"/>
<path d="M42 237C43.1046 237 44 236.105 44 235C44 233.895 43.1046 233 42 233C40.8954 233 40 233.895 40 235C40 236.105 40.8954 237 42 237Z" fill="#00FFFF"/>
<path d="M62 237C63.1046 237 64 236.105 64 235C64 233.895 63.1046 233 62 233C60.8954 233 60 233.895 60 235C60 236.105 60.8954 237 62 237Z" fill="#00FFFF"/>
<path d="M82 237C83.1046 237 84 236.105 84 235C84 233.895 83.1046 233 82 233C80.8954 233 80 233.895 80 235C80 236.105 80.8954 237 82 237Z" fill="#00FFFF"/>
<path d="M2 257C3.10457 257 4 256.105 4 255C4 253.895 3.10457 253 2 253C0.89543 253 0 253.895 0 255C0 256.105 0.89543 257 2 257Z" fill="#00FFFF"/>
<path d="M22 257C23.1046 257 24 256.105 24 255C24 253.895 23.1046 253 22 253C20.8954 253 20 253.895 20 255C20 256.105 20.8954 257 22 257Z" fill="#00FFFF"/>
<path d="M42 257C43.1046 257 44 256.105 44 255C44 253.895 43.1046 253 42 253C40.8954 253 40 253.895 40 255C40 256.105 40.8954 257 42 257Z" fill="#00FFFF"/>
<path d="M62 257C63.1046 257 64 256.105 64 255C64 253.895 63.1046 253 62 253C60.8954 253 60 253.895 60 255C60 256.105 60.8954 257 62 257Z" fill="#00FFFF"/>
<path d="M82 257C83.1046 257 84 256.105 84 255C84 253.895 83.1046 253 82 253C80.8954 253 80 253.895 80 255C80 256.105 80.8954 257 82 257Z" fill="#00FFFF"/>
<path d="M2 277C3.10457 277 4 276.105 4 275C4 273.895 3.10457 273 2 273C0.89543 273 0 273.895 0 275C0 276.105 0.89543 277 2 277Z" fill="#00FFFF"/>
<path d="M22 277C23.1046 277 24 276.105 24 275C24 273.895 23.1046 273 22 273C20.8954 273 20 273.895 20 275C20 276.105 20.8954 277 22 277Z" fill="#00FFFF"/>
<path d="M42 277C43.1046 277 44 276.105 44 275C44 273.895 43.1046 273 42 273C40.8954 273 40 273.895 40 275C40 276.105 40.8954 277 42 277Z" fill="#00FFFF"/>
<path d="M62 277C63.1046 277 64 276.105 64 275C64 273.895 63.1046 273 62 273C60.8954 273 60 273.895 60 275C60 276.105 60.8954 277 62 277Z" fill="#00FFFF"/>
<path d="M82 277C83.1046 277 84 276.105 84 275C84 273.895 83.1046 273 82 273C80.8954 273 80 273.895 80 275C80 276.105 80.8954 277 82 277Z" fill="#00FFFF"/>
<path d="M2 297C3.10457 297 4 296.105 4 295C4 293.895 3.10457 293 2 293C0.89543 293 0 293.895 0 295C0 296.105 0.89543 297 2 297Z" fill="#00FFFF"/>
<path d="M22 297C23.1046 297 24 296.105 24 295C24 293.895 23.1046 293 22 293C20.8954 293 20 293.895 20 295C20 296.105 20.8954 297 22 297Z" fill="#00FFFF"/>
<path d="M42 297C43.1046 297 44 296.105 44 295C44 293.895 43.1046 293 42 293C40.8954 293 40 293.895 40 295C40 296.105 40.8954 297 42 297Z" fill="#00FFFF"/>
<path d="M62 297C63.1046 297 64 296.105 64 295C64 293.895 63.1046 293 62 293C60.8954 293 60 293.895 60 295C60 296.105 60.8954 297 62 297Z" fill="#00FFFF"/>
<path d="M82 297C83.1046 297 84 296.105 84 295C84 293.895 83.1046 293 82 293C80.8954 293 80 293.895 80 295C80 296.105 80.8954 297 82 297Z" fill="#00FFFF"/>
<path d="M2 317C3.10457 317 4 316.105 4 315C4 313.895 3.10457 313 2 313C0.89543 313 0 313.895 0 315C0 316.105 0.89543 317 2 317Z" fill="#00FFFF"/>
<path d="M22 317C23.1046 317 24 316.105 24 315C24 313.895 23.1046 313 22 313C20.8954 313 20 313.895 20 315C20 316.105 20.8954 317 22 317Z" fill="#00FFFF"/>
<path d="M42 317C43.1046 317 44 316.105 44 315C44 313.895 43.1046 313 42 313C40.8954 313 40 313.895 40 315C40 316.105 40.8954 317 42 317Z" fill="#00FFFF"/>
<path d="M62 317C63.1046 317 64 316.105 64 315C64 313.895 63.1046 313 62 313C60.8954 313 60 313.895 60 315C60 316.105 60.8954 317 62 317Z" fill="#00FFFF"/>
<path d="M82 317C83.1046 317 84 316.105 84 315C84 313.895 83.1046 313 82 313C80.8954 313 80 313.895 80 315C80 316.105 80.8954 317 82 317Z" fill="#00FFFF"/>
</g>
<g clip-path="url(#clip1_0_1)">
<path d="M236 4C237.105 4 238 3.10457 238 2C238 0.89543 237.105 0 236 0C234.895 0 234 0.89543 234 2C234 3.10457 234.895 4 236 4Z" fill="#00FFFF"/>
<path d="M256 4C257.105 4 258 3.10457 258 2C258 0.89543 257.105 0 256 0C254.895 0 254 0.89543 254 2C254 3.10457 254.895 4 256 4Z" fill="#00FFFF"/>
<path d="M276 4C277.105 4 278 3.10457 278 2C278 0.89543 277.105 0 276 0C274.895 0 274 0.89543 274 2C274 3.10457 274.895 4 276 4Z" fill="#00FFFF"/>
<path d="M296 4C297.105 4 298 3.10457 298 2C298 0.89543 297.105 0 296 0C294.895 0 294 0.89543 294 2C294 3.10457 294.895 4 296 4Z" fill="#00FFFF"/>
<path d="M316 4C317.105 4 318 3.10457 318 2C318 0.89543 317.105 0 316 0C314.895 0 314 0.89543 314 2C314 3.10457 314.895 4 316 4Z" fill="#00FFFF"/>
<path d="M236 24C237.105 24 238 23.1046 238 22C238 20.8954 237.105 20 236 20C234.895 20 234 20.8954 234 22C234 23.1046 234.895 24 236 24Z" fill="#00FFFF"/>
<path d="M256 24C257.105 24 258 23.1046 258 22C258 20.8954 257.105 20 256 20C254.895 20 254 20.8954 254 22C254 23.1046 254.895 24 256 24Z" fill="#00FFFF"/>
<path d="M276 24C277.105 24 278 23.1046 278 22C278 20.8954 277.105 20 276 20C274.895 20 274 20.8954 274 22C274 23.1046 274.895 24 276 24Z" fill="#00FFFF"/>
<path d="M296 24C297.105 24 298 23.1046 298 22C298 20.8954 297.105 20 296 20C294.895 20 294 20.8954 294 22C294 23.1046 294.895 24 296 24Z" fill="#00FFFF"/>
<path d="M316 24C317.105 24 318 23.1046 318 22C318 20.8954 317.105 20 316 20C314.895 20 314 20.8954 314 22C314 23.1046 314.895 24 316 24Z" fill="#00FFFF"/>
<path d="M236 44C237.105 44 238 43.1046 238 42C238 40.8954 237.105 40 236 40C234.895 40 234 40.8954 234 42C234 43.1046 234.895 44 236 44Z" fill="#00FFFF"/>
<path d="M256 44C257.105 44 258 43.1046 258 42C258 40.8954 257.105 40 256 40C254.895 40 254 40.8954 254 42C254 43.1046 254.895 44 256 44Z" fill="#00FFFF"/>
<path d="M276 44C277.105 44 278 43.1046 278 42C278 40.8954 277.105 40 276 40C274.895 40 274 40.8954 274 42C274 43.1046 274.895 44 276 44Z" fill="#00FFFF"/>
<path d="M296 44C297.105 44 298 43.1046 298 42C298 40.8954 297.105 40 296 40C294.895 40 294 40.8954 294 42C294 43.1046 294.895 44 296 44Z" fill="#00FFFF"/>
<path d="M316 44C317.105 44 318 43.1046 318 42C318 40.8954 317.105 40 316 40C314.895 40 314 40.8954 314 42C314 43.1046 314.895 44 316 44Z" fill="#00FFFF"/>
<path d="M236 64C237.105 64 238 63.1046 238 62C238 60.8954 237.105 60 236 60C234.895 60 234 60.8954 234 62C234 63.1046 234.895 64 236 64Z" fill="#00FFFF"/>
<path d="M256 64C257.105 64 258 63.1046 258 62C258 60.8954 257.105 60 256 60C254.895 60 254 60.8954 254 62C254 63.1046 254.895 64 256 64Z" fill="#00FFFF"/>
<path d="M276 64C277.105 64 278 63.1046 278 62C278 60.8954 277.105 60 276 60C274.895 60 274 60.8954 274 62C274 63.1046 274.895 64 276 64Z" fill="#00FFFF"/>
<path d="M296 64C297.105 64 298 63.1046 298 62C298 60.8954 297.105 60 296 60C294.895 60 294 60.8954 294 62C294 63.1046 294.895 64 296 64Z" fill="#00FFFF"/>
<path d="M316 64C317.105 64 318 63.1046 318 62C318 60.8954 317.105 60 316 60C314.895 60 314 60.8954 314 62C314 63.1046 314.895 64 316 64Z" fill="#00FFFF"/>
<path d="M236 84C237.105 84 238 83.1046 238 82C238 80.8954 237.105 80 236 80C234.895 80 234 80.8954 234 82C234 83.1046 234.895 84 236 84Z" fill="#00FFFF"/>
<path d="M256 84C257.105 84 258 83.1046 258 82C258 80.8954 257.105 80 256 80C254.895 80 254 80.8954 254 82C254 83.1046 254.895 84 256 84Z" fill="#00FFFF"/>
<path d="M276 84C277.105 84 278 83.1046 278 82C278 80.8954 277.105 80 276 80C274.895 80 274 80.8954 274 82C274 83.1046 274.895 84 276 84Z" fill="#00FFFF"/>
<path d="M296 84C297.105 84 298 83.1046 298 82C298 80.8954 297.105 80 296 80C294.895 80 294 80.8954 294 82C294 83.1046 294.895 84 296 84Z" fill="#00FFFF"/>
<path d="M316 84C317.105 84 318 83.1046 318 82C318 80.8954 317.105 80 316 80C314.895 80 314 80.8954 314 82C314 83.1046 314.895 84 316 84Z" fill="#00FFFF"/>
</g>
<g clip-path="url(#clip2_0_1)">
<path d="M233.128 84.8721H84.8721V233.128H233.128V84.8721Z" stroke="#ABB2BF" stroke-width="1.74419"/>
<g clip-path="url(#clip3_0_1)">
<path d="M92 95C93.1046 95 94 94.1046 94 93C94 91.8954 93.1046 91 92 91C90.8954 91 90 91.8954 90 93C90 94.1046 90.8954 95 92 95Z" fill="#00FFFF"/>
<path d="M112 95C113.105 95 114 94.1046 114 93C114 91.8954 113.105 91 112 91C110.895 91 110 91.8954 110 93C110 94.1046 110.895 95 112 95Z" fill="#00FFFF"/>
<path d="M132 95C133.105 95 134 94.1046 134 93C134 91.8954 133.105 91 132 91C130.895 91 130 91.8954 130 93C130 94.1046 130.895 95 132 95Z" fill="#00FFFF"/>
<path d="M92 115C93.1046 115 94 114.105 94 113C94 111.895 93.1046 111 92 111C90.8954 111 90 111.895 90 113C90 114.105 90.8954 115 92 115Z" fill="#00FFFF"/>
<path d="M112 115C113.105 115 114 114.105 114 113C114 111.895 113.105 111 112 111C110.895 111 110 111.895 110 113C110 114.105 110.895 115 112 115Z" fill="#00FFFF"/>
<path d="M132 115C133.105 115 134 114.105 134 113C134 111.895 133.105 111 132 111C130.895 111 130 111.895 130 113C130 114.105 130.895 115 132 115Z" fill="#00FFFF"/>
<path d="M92 135C93.1046 135 94 134.105 94 133C94 131.895 93.1046 131 92 131C90.8954 131 90 131.895 90 133C90 134.105 90.8954 135 92 135Z" fill="#00FFFF"/>
<path d="M112 135C113.105 135 114 134.105 114 133C114 131.895 113.105 131 112 131C110.895 131 110 131.895 110 133C110 134.105 110.895 135 112 135Z" fill="#00FFFF"/>
<path d="M132 135C133.105 135 134 134.105 134 133C134 131.895 133.105 131 132 131C130.895 131 130 131.895 130 133C130 134.105 130.895 135 132 135Z" fill="#00FFFF"/>
</g>
<g clip-path="url(#clip4_0_1)">
<path d="M178.738 136.238H134.262V176.762H178.738V136.238Z" stroke="#ABB2BF" stroke-width="1.74419"/>
</g>
</g>
<g clip-path="url(#clip5_0_1)">
<path d="M185 182.476C186.105 182.476 187 181.583 187 180.48C187 179.378 186.105 178.485 185 178.485C183.895 178.485 183 179.378 183 180.48C183 181.583 183.895 182.476 185 182.476Z" fill="#00FFFF"/>
<path d="M205 182.476C206.105 182.476 207 181.583 207 180.48C207 179.378 206.105 178.485 205 178.485C203.895 178.485 203 179.378 203 180.48C203 181.583 203.895 182.476 205 182.476Z" fill="#00FFFF"/>
<path d="M225 182.476C226.105 182.476 227 181.583 227 180.48C227 179.378 226.105 178.485 225 178.485C223.895 178.485 223 179.378 223 180.48C223 181.583 223.895 182.476 225 182.476Z" fill="#00FFFF"/>
<path d="M185 202.433C186.105 202.433 187 201.539 187 200.437C187 199.335 186.105 198.441 185 198.441C183.895 198.441 183 199.335 183 200.437C183 201.539 183.895 202.433 185 202.433Z" fill="#00FFFF"/>
<path d="M205 202.433C206.105 202.433 207 201.539 207 200.437C207 199.335 206.105 198.441 205 198.441C203.895 198.441 203 199.335 203 200.437C203 201.539 203.895 202.433 205 202.433Z" fill="#00FFFF"/>
<path d="M225 202.433C226.105 202.433 227 201.539 227 200.437C227 199.335 226.105 198.441 225 198.441C223.895 198.441 223 199.335 223 200.437C223 201.539 223.895 202.433 225 202.433Z" fill="#00FFFF"/>
<path d="M185 222.389C186.105 222.389 187 221.496 187 220.393C187 219.291 186.105 218.398 185 218.398C183.895 218.398 183 219.291 183 220.393C183 221.496 183.895 222.389 185 222.389Z" fill="#00FFFF"/>
<path d="M205 222.389C206.105 222.389 207 221.496 207 220.393C207 219.291 206.105 218.398 205 218.398C203.895 218.398 203 219.291 203 220.393C203 221.496 203.895 222.389 205 222.389Z" fill="#00FFFF"/>
<path d="M225 222.389C226.105 222.389 227 221.496 227 220.393C227 219.291 226.105 218.398 225 218.398C223.895 218.398 223 219.291 223 220.393C223 221.496 223.895 222.389 225 222.389Z" fill="#00FFFF"/>
</g>
<defs>
<clipPath id="clip0_0_1">
<rect width="84" height="84" fill="white" transform="translate(0 233)"/>
</clipPath>
<clipPath id="clip1_0_1">
<rect width="84" height="84" fill="white" transform="translate(234)"/>
</clipPath>
<clipPath id="clip2_0_1">
<rect width="150" height="150" fill="white" transform="translate(84 84)"/>
</clipPath>
<clipPath id="clip3_0_1">
<rect width="84" height="84" fill="white" transform="translate(50 51)"/>
</clipPath>
<clipPath id="clip4_0_1">
<rect width="45" height="41" fill="white" transform="translate(134 136)"/>
</clipPath>
<clipPath id="clip5_0_1">
<rect width="84" height="83.8174" fill="white" transform="translate(183 178.485)"/>
</clipPath>
</defs>
</svg>
